<mxfile host="app.diagrams.net" modified="2023-03-27T17:07:57.582Z" agent="Mozilla/5.0 (Windows NT 10.0; Win64; x64) AppleWebKit/537.36 (KHTML, like Gecko) Chrome/111.0.0.0 Safari/537.36" etag="RoBh4vUBhmPTGIAJAgWY" version="21.1.1" type="device">
  <diagram name="Page-1" id="74b105a0-9070-1c63-61bc-23e55f88626e">
    <mxGraphModel dx="1838" dy="1018" grid="1" gridSize="10" guides="1" tooltips="1" connect="1" arrows="1" fold="1" page="1" pageScale="1.5" pageWidth="1169" pageHeight="826" background="none" math="0" shadow="0">
      <root>
        <mxCell id="0" style=";html=1;" />
        <mxCell id="1" style=";html=1;" parent="0" />
        <mxCell id="hbAHIciJkzQJu2692QOL-20" value="" style="endArrow=classic;html=1;rounded=0;exitX=0.938;exitY=1;exitDx=0;exitDy=0;exitPerimeter=0;" parent="1" edge="1">
          <mxGeometry width="50" height="50" relative="1" as="geometry">
            <mxPoint x="320" y="840" as="sourcePoint" />
            <mxPoint x="1560" y="840" as="targetPoint" />
            <Array as="points">
              <mxPoint x="320" y="1160" />
              <mxPoint x="1560" y="1160" />
            </Array>
          </mxGeometry>
        </mxCell>
        <mxCell id="10b056a9c633e61c-15" value="PostgreSQL" style="strokeWidth=2;dashed=0;align=center;fontSize=14;verticalLabelPosition=bottom;verticalAlign=top;shape=mxgraph.eip.message_store;fillColor=#c0f5a9;fontStyle=1" parent="1" vertex="1">
          <mxGeometry x="140" y="960" width="120" height="80" as="geometry" />
        </mxCell>
        <mxCell id="10b056a9c633e61c-30" value="Task force" style="text;strokeColor=none;fillColor=none;html=1;fontSize=24;fontStyle=1;verticalAlign=middle;align=center;" parent="1" vertex="1">
          <mxGeometry x="5" y="40" width="1590" height="40" as="geometry" />
        </mxCell>
        <mxCell id="mkWLtosg0KvpGkdHC7VF-68" value="PostgreSQL" style="strokeWidth=2;dashed=0;align=center;fontSize=14;verticalLabelPosition=bottom;verticalAlign=top;shape=mxgraph.eip.message_store;fillColor=#c0f5a9;fontStyle=1" parent="1" vertex="1">
          <mxGeometry x="500" y="960" width="120" height="80" as="geometry" />
        </mxCell>
        <mxCell id="NgM1DkIRtxGgJuV6kC7f-7" value="" style="group" parent="1" vertex="1" connectable="0">
          <mxGeometry x="717" y="120" width="163" height="80" as="geometry" />
        </mxCell>
        <mxCell id="qQsVey0D8Tyg-_Dp7Qvx-10" value="" style="strokeWidth=2;dashed=0;align=center;fontSize=12;shape=rect;verticalLabelPosition=bottom;verticalAlign=top;fillColor=#c0f5a9" parent="NgM1DkIRtxGgJuV6kC7f-7" vertex="1">
          <mxGeometry width="163" height="80" as="geometry" />
        </mxCell>
        <mxCell id="qQsVey0D8Tyg-_Dp7Qvx-11" value="&lt;b&gt;&lt;font style=&quot;font-size: 16px;&quot;&gt;Client&lt;/font&gt;&lt;/b&gt;" style="text;html=1;align=center;verticalAlign=middle;resizable=0;points=[];autosize=1;strokeColor=none;fillColor=none;strokeWidth=1;fontSize=14;" parent="NgM1DkIRtxGgJuV6kC7f-7" vertex="1">
          <mxGeometry x="45.84375" y="25" width="70" height="30" as="geometry" />
        </mxCell>
        <mxCell id="NgM1DkIRtxGgJuV6kC7f-8" value="" style="group" parent="1" vertex="1" connectable="0">
          <mxGeometry x="719" y="280" width="160" height="80" as="geometry" />
        </mxCell>
        <mxCell id="10b056a9c633e61c-4" value="" style="strokeWidth=2;dashed=0;align=center;fontSize=12;shape=rect;verticalLabelPosition=bottom;verticalAlign=top;fillColor=#c0f5a9" parent="NgM1DkIRtxGgJuV6kC7f-8" vertex="1">
          <mxGeometry width="160" height="80" as="geometry" />
        </mxCell>
        <mxCell id="qQsVey0D8Tyg-_Dp7Qvx-8" value="&lt;font style=&quot;font-size: 17px;&quot;&gt;&lt;b&gt;API Gateway&lt;/b&gt;&lt;/font&gt;" style="text;html=1;align=center;verticalAlign=middle;resizable=0;points=[];autosize=1;strokeColor=none;fillColor=none;strokeWidth=1;fontSize=14;" parent="NgM1DkIRtxGgJuV6kC7f-8" vertex="1">
          <mxGeometry x="15" y="25" width="130" height="30" as="geometry" />
        </mxCell>
        <mxCell id="NgM1DkIRtxGgJuV6kC7f-79" value="" style="group" parent="1" vertex="1" connectable="0">
          <mxGeometry x="40" y="440" width="320" height="400" as="geometry" />
        </mxCell>
        <mxCell id="qQsVey0D8Tyg-_Dp7Qvx-13" value="" style="strokeWidth=2;dashed=0;align=center;fontSize=12;shape=rect;verticalLabelPosition=bottom;verticalAlign=top;fillColor=#c0f5a9" parent="NgM1DkIRtxGgJuV6kC7f-79" vertex="1">
          <mxGeometry width="320" height="400" as="geometry" />
        </mxCell>
        <mxCell id="NgM1DkIRtxGgJuV6kC7f-9" value="Account" style="text;html=1;align=center;verticalAlign=middle;resizable=0;points=[];autosize=1;strokeColor=none;fillColor=none;fontSize=16;fontStyle=1" parent="NgM1DkIRtxGgJuV6kC7f-79" vertex="1">
          <mxGeometry x="10.00242424242424" y="10" width="90" height="30" as="geometry" />
        </mxCell>
        <mxCell id="NgM1DkIRtxGgJuV6kC7f-89" value="" style="group" parent="NgM1DkIRtxGgJuV6kC7f-79" vertex="1" connectable="0">
          <mxGeometry x="19.99939393939394" y="55" width="285.00060606060606" height="125" as="geometry" />
        </mxCell>
        <mxCell id="mkWLtosg0KvpGkdHC7VF-5" value="" style="rounded=0;whiteSpace=wrap;html=1;fillColor=#ffe6cc;strokeColor=#d79b00;" parent="NgM1DkIRtxGgJuV6kC7f-89" vertex="1">
          <mxGeometry x="0.0006060606060600549" width="285" height="125" as="geometry" />
        </mxCell>
        <mxCell id="mkWLtosg0KvpGkdHC7VF-74" value="&lt;b&gt;/account/{accountId}&lt;br&gt;&lt;/b&gt;получение информации о&lt;br&gt;пользователе" style="text;html=1;align=left;verticalAlign=middle;resizable=0;points=[];autosize=1;strokeColor=none;fillColor=none;" parent="NgM1DkIRtxGgJuV6kC7f-89" vertex="1">
          <mxGeometry x="89.06060606060606" y="5" width="170" height="60" as="geometry" />
        </mxCell>
        <mxCell id="mkWLtosg0KvpGkdHC7VF-77" value="" style="shape=waypoint;sketch=0;fillStyle=solid;size=6;pointerEvents=1;points=[];fillColor=none;resizable=0;rotatable=0;perimeter=centerPerimeter;snapToPoint=1;" parent="NgM1DkIRtxGgJuV6kC7f-89" vertex="1">
          <mxGeometry x="62.878787878787875" y="10" width="20" height="20" as="geometry" />
        </mxCell>
        <mxCell id="mkWLtosg0KvpGkdHC7VF-78" value="&lt;b&gt;GET&lt;/b&gt;" style="text;html=1;align=center;verticalAlign=middle;resizable=0;points=[];autosize=1;strokeColor=none;fillColor=none;" parent="NgM1DkIRtxGgJuV6kC7f-89" vertex="1">
          <mxGeometry y="5" width="50" height="30" as="geometry" />
        </mxCell>
        <mxCell id="NgM1DkIRtxGgJuV6kC7f-91" value="" style="group" parent="NgM1DkIRtxGgJuV6kC7f-79" vertex="1" connectable="0">
          <mxGeometry x="19.68" y="280" width="296.1369470910197" height="100" as="geometry" />
        </mxCell>
        <mxCell id="mkWLtosg0KvpGkdHC7VF-30" value="" style="rounded=0;whiteSpace=wrap;html=1;fillColor=#ffe6cc;strokeColor=#d79b00;movable=1;resizable=1;rotatable=1;deletable=1;editable=1;locked=0;connectable=1;" parent="NgM1DkIRtxGgJuV6kC7f-91" vertex="1">
          <mxGeometry width="285.32" height="100" as="geometry" />
        </mxCell>
        <mxCell id="mkWLtosg0KvpGkdHC7VF-48" value="&lt;b&gt;/account/{accountId}/password&lt;/b&gt;&lt;br&gt;изменение пароля пользователя" style="text;html=1;align=left;verticalAlign=middle;resizable=1;points=[];autosize=1;strokeColor=none;fillColor=none;movable=1;rotatable=1;deletable=1;editable=1;locked=0;connectable=1;" parent="NgM1DkIRtxGgJuV6kC7f-91" vertex="1">
          <mxGeometry x="86.13694709101969" y="10" width="210" height="40" as="geometry" />
        </mxCell>
        <mxCell id="mkWLtosg0KvpGkdHC7VF-52" value="" style="shape=waypoint;sketch=0;fillStyle=solid;size=6;pointerEvents=1;points=[];fillColor=none;resizable=0;rotatable=0;perimeter=centerPerimeter;snapToPoint=1;" parent="NgM1DkIRtxGgJuV6kC7f-91" vertex="1">
          <mxGeometry x="60.858003055375015" y="10" width="20" height="20" as="geometry" />
        </mxCell>
        <mxCell id="mkWLtosg0KvpGkdHC7VF-53" value="&lt;b&gt;PATCH&lt;/b&gt;" style="text;html=1;align=center;verticalAlign=middle;resizable=0;points=[];autosize=1;strokeColor=none;fillColor=none;" parent="NgM1DkIRtxGgJuV6kC7f-91" vertex="1">
          <mxGeometry x="0.8600000000000003" y="5" width="60" height="30" as="geometry" />
        </mxCell>
        <mxCell id="mkWLtosg0KvpGkdHC7VF-56" value="&lt;b&gt;/account/{accountId}/profile&lt;/b&gt;&lt;br&gt;изменение профиля" style="text;html=1;align=left;verticalAlign=middle;resizable=1;points=[];autosize=1;strokeColor=none;fillColor=none;movable=1;rotatable=1;deletable=1;editable=1;locked=0;connectable=1;" parent="NgM1DkIRtxGgJuV6kC7f-91" vertex="1">
          <mxGeometry x="86.13694709101966" y="55" width="180" height="40" as="geometry" />
        </mxCell>
        <mxCell id="mkWLtosg0KvpGkdHC7VF-57" value="" style="shape=waypoint;sketch=0;fillStyle=solid;size=6;pointerEvents=1;points=[];fillColor=none;resizable=0;rotatable=0;perimeter=centerPerimeter;snapToPoint=1;" parent="NgM1DkIRtxGgJuV6kC7f-91" vertex="1">
          <mxGeometry x="60.858003055375015" y="55" width="20" height="20" as="geometry" />
        </mxCell>
        <mxCell id="NgM1DkIRtxGgJuV6kC7f-58" value="" style="rounded=0;whiteSpace=wrap;html=1;fillColor=#ffe6cc;strokeColor=#d79b00;movable=1;resizable=1;rotatable=1;deletable=1;editable=1;locked=0;connectable=1;" parent="NgM1DkIRtxGgJuV6kC7f-79" vertex="1">
          <mxGeometry x="19.85" y="120" width="285.15" height="160" as="geometry" />
        </mxCell>
        <mxCell id="NgM1DkIRtxGgJuV6kC7f-59" value="&lt;b&gt;/account/login&lt;/b&gt;&lt;br&gt;логин пользователя" style="text;html=1;align=left;verticalAlign=middle;resizable=1;points=[];autosize=1;strokeColor=none;fillColor=none;movable=1;rotatable=1;deletable=1;editable=1;locked=0;connectable=1;" parent="NgM1DkIRtxGgJuV6kC7f-79" vertex="1">
          <mxGeometry x="109.05999999999997" y="125" width="130" height="40" as="geometry" />
        </mxCell>
        <mxCell id="NgM1DkIRtxGgJuV6kC7f-60" value="" style="shape=waypoint;sketch=0;fillStyle=solid;size=6;pointerEvents=1;points=[];fillColor=none;resizable=0;rotatable=0;perimeter=centerPerimeter;snapToPoint=1;" parent="NgM1DkIRtxGgJuV6kC7f-79" vertex="1">
          <mxGeometry x="82.87818181818179" y="130" width="20" height="20" as="geometry" />
        </mxCell>
        <mxCell id="NgM1DkIRtxGgJuV6kC7f-61" value="&lt;b&gt;POST&lt;/b&gt;" style="text;html=1;align=center;verticalAlign=middle;resizable=0;points=[];autosize=1;strokeColor=none;fillColor=none;" parent="NgM1DkIRtxGgJuV6kC7f-79" vertex="1">
          <mxGeometry x="19.849393939393913" y="125" width="60" height="30" as="geometry" />
        </mxCell>
        <mxCell id="NgM1DkIRtxGgJuV6kC7f-62" value="&lt;b&gt;/account/register&lt;/b&gt;&lt;br&gt;регистрация пользователя" style="text;html=1;align=left;verticalAlign=middle;resizable=1;points=[];autosize=1;strokeColor=none;fillColor=none;movable=1;rotatable=1;deletable=1;editable=1;locked=0;connectable=1;" parent="NgM1DkIRtxGgJuV6kC7f-79" vertex="1">
          <mxGeometry x="109.05999999999997" y="170" width="170" height="40" as="geometry" />
        </mxCell>
        <mxCell id="NgM1DkIRtxGgJuV6kC7f-63" value="" style="shape=waypoint;sketch=0;fillStyle=solid;size=6;pointerEvents=1;points=[];fillColor=none;resizable=0;rotatable=0;perimeter=centerPerimeter;snapToPoint=1;" parent="NgM1DkIRtxGgJuV6kC7f-79" vertex="1">
          <mxGeometry x="82.87818181818179" y="170" width="20" height="20" as="geometry" />
        </mxCell>
        <mxCell id="pq-FWwTXgRDlDHaan9jz-2" value="" style="group" parent="NgM1DkIRtxGgJuV6kC7f-79" vertex="1" connectable="0">
          <mxGeometry x="82.87818181818182" y="220" width="226.1818181818182" height="40" as="geometry" />
        </mxCell>
        <mxCell id="mkWLtosg0KvpGkdHC7VF-75" value="&lt;b&gt;/account/logout&lt;/b&gt;&lt;br&gt;выход из авторизованной зоны" style="text;html=1;align=left;verticalAlign=middle;resizable=0;points=[];autosize=1;strokeColor=none;fillColor=none;" parent="pq-FWwTXgRDlDHaan9jz-2" vertex="1">
          <mxGeometry x="26.181818181818187" width="200" height="40" as="geometry" />
        </mxCell>
        <mxCell id="mkWLtosg0KvpGkdHC7VF-76" value="" style="shape=waypoint;sketch=0;fillStyle=solid;size=6;pointerEvents=1;points=[];fillColor=none;resizable=0;rotatable=0;perimeter=centerPerimeter;snapToPoint=1;" parent="pq-FWwTXgRDlDHaan9jz-2" vertex="1">
          <mxGeometry width="20" height="20" as="geometry" />
        </mxCell>
        <mxCell id="NgM1DkIRtxGgJuV6kC7f-161" value="PostgreSQL" style="strokeWidth=2;dashed=0;align=center;fontSize=14;verticalLabelPosition=bottom;verticalAlign=top;shape=mxgraph.eip.message_store;fillColor=#c0f5a9;fontStyle=1" parent="1" vertex="1">
          <mxGeometry x="900" y="960" width="121.43" height="80" as="geometry" />
        </mxCell>
        <mxCell id="NgM1DkIRtxGgJuV6kC7f-162" value="PostgreSQL" style="strokeWidth=2;dashed=0;align=center;fontSize=14;verticalLabelPosition=bottom;verticalAlign=top;shape=mxgraph.eip.message_store;fillColor=#c0f5a9;fontStyle=1" parent="1" vertex="1">
          <mxGeometry x="1260" y="960" width="120" height="80" as="geometry" />
        </mxCell>
        <mxCell id="NgM1DkIRtxGgJuV6kC7f-163" value="" style="group" parent="1" vertex="1" connectable="0">
          <mxGeometry x="1540" y="440" width="190" height="575" as="geometry" />
        </mxCell>
        <mxCell id="mkWLtosg0KvpGkdHC7VF-131" value="" style="strokeWidth=2;dashed=0;align=center;fontSize=12;shape=rect;verticalLabelPosition=bottom;verticalAlign=top;fillColor=#c0f5a9" parent="NgM1DkIRtxGgJuV6kC7f-163" vertex="1">
          <mxGeometry x="-20" width="200" height="400" as="geometry" />
        </mxCell>
        <mxCell id="mkWLtosg0KvpGkdHC7VF-132" value="&lt;b&gt;Notification&lt;/b&gt;" style="text;html=1;align=left;verticalAlign=middle;resizable=0;points=[];autosize=1;strokeColor=none;fillColor=none;strokeWidth=1;fontSize=17;" parent="NgM1DkIRtxGgJuV6kC7f-163" vertex="1">
          <mxGeometry x="0.003333333333337407" y="9.996666666666663" width="120" height="30" as="geometry" />
        </mxCell>
        <mxCell id="9JLBD4dGbarb6GJhEA6_-7" value="" style="group" parent="NgM1DkIRtxGgJuV6kC7f-163" vertex="1" connectable="0">
          <mxGeometry x="15" y="330" width="130" height="45" as="geometry" />
        </mxCell>
        <mxCell id="hbAHIciJkzQJu2692QOL-31" value="" style="strokeWidth=2;dashed=0;align=center;fontSize=12;shape=rect;verticalLabelPosition=bottom;verticalAlign=top;fillColor=#f8cecc;strokeColor=#b85450;" parent="9JLBD4dGbarb6GJhEA6_-7" vertex="1">
          <mxGeometry width="130" height="45" as="geometry" />
        </mxCell>
        <mxCell id="hbAHIciJkzQJu2692QOL-32" value="&lt;b&gt;Mailer&lt;/b&gt;" style="text;html=1;align=center;verticalAlign=middle;resizable=0;points=[];autosize=1;strokeColor=none;fillColor=none;strokeWidth=1;fontSize=17;" parent="9JLBD4dGbarb6GJhEA6_-7" vertex="1">
          <mxGeometry x="30.002874999999992" y="7.503529411764703" width="70" height="30" as="geometry" />
        </mxCell>
        <mxCell id="NgM1DkIRtxGgJuV6kC7f-194" value="" style="group" parent="NgM1DkIRtxGgJuV6kC7f-163" vertex="1" connectable="0">
          <mxGeometry x="30" y="210" width="100" height="105" as="geometry" />
        </mxCell>
        <mxCell id="NgM1DkIRtxGgJuV6kC7f-180" value="RabbitMQ" style="text;html=1;align=center;verticalAlign=middle;resizable=0;points=[];autosize=1;strokeColor=none;fillColor=none;fontSize=17;fontStyle=1" parent="NgM1DkIRtxGgJuV6kC7f-194" vertex="1">
          <mxGeometry y="60" width="100" height="30" as="geometry" />
        </mxCell>
        <mxCell id="NgM1DkIRtxGgJuV6kC7f-178" value="" style="group;rotation=-180;fontSize=12;" parent="NgM1DkIRtxGgJuV6kC7f-194" vertex="1" connectable="0">
          <mxGeometry width="100" height="64.02" as="geometry" />
        </mxCell>
        <mxCell id="NgM1DkIRtxGgJuV6kC7f-172" value="" style="strokeWidth=2;html=1;shape=mxgraph.flowchart.decision;whiteSpace=wrap;rotation=-180;fillColor=#f8cecc;strokeColor=#b85450;" parent="NgM1DkIRtxGgJuV6kC7f-178" vertex="1">
          <mxGeometry y="22.816431877203243" width="100" height="34.59605512023778" as="geometry" />
        </mxCell>
        <mxCell id="NgM1DkIRtxGgJuV6kC7f-175" value="" style="strokeWidth=2;html=1;shape=mxgraph.flowchart.decision;whiteSpace=wrap;rotation=-180;fillColor=#f8cecc;strokeColor=#b85450;" parent="NgM1DkIRtxGgJuV6kC7f-178" vertex="1">
          <mxGeometry y="10.70781258512002" width="100" height="34.59605512023778" as="geometry" />
        </mxCell>
        <mxCell id="NgM1DkIRtxGgJuV6kC7f-176" value="" style="strokeWidth=2;html=1;shape=mxgraph.flowchart.decision;whiteSpace=wrap;rotation=-180;fillColor=#f8cecc;strokeColor=#b85450;" parent="NgM1DkIRtxGgJuV6kC7f-178" vertex="1">
          <mxGeometry y="2.0587988050605763" width="100" height="34.59605512023778" as="geometry" />
        </mxCell>
        <mxCell id="NgM1DkIRtxGgJuV6kC7f-177" value="" style="strokeWidth=2;html=1;shape=mxgraph.flowchart.decision;whiteSpace=wrap;rotation=-180;fillColor=#f8cecc;strokeColor=#b85450;" parent="NgM1DkIRtxGgJuV6kC7f-178" vertex="1">
          <mxGeometry y="-6.590214974998873" width="100" height="34.59605512023778" as="geometry" />
        </mxCell>
        <mxCell id="NgM1DkIRtxGgJuV6kC7f-179" value="" style="strokeWidth=2;html=1;shape=mxgraph.flowchart.decision;whiteSpace=wrap;rotation=-180;fillColor=#f8cecc;strokeColor=#b85450;" parent="NgM1DkIRtxGgJuV6kC7f-178" vertex="1">
          <mxGeometry y="-17.297694034712464" width="100" height="34.59605512023778" as="geometry" />
        </mxCell>
        <mxCell id="NgM1DkIRtxGgJuV6kC7f-164" value="" style="group" parent="1" vertex="1" connectable="0">
          <mxGeometry x="400" y="440" width="320" height="400" as="geometry" />
        </mxCell>
        <mxCell id="mkWLtosg0KvpGkdHC7VF-69" value="" style="strokeWidth=2;dashed=0;align=center;fontSize=12;shape=rect;verticalLabelPosition=bottom;verticalAlign=top;fillColor=#c0f5a9" parent="NgM1DkIRtxGgJuV6kC7f-164" vertex="1">
          <mxGeometry width="320" height="400" as="geometry" />
        </mxCell>
        <mxCell id="mkWLtosg0KvpGkdHC7VF-70" value="&lt;b&gt;Task&lt;/b&gt;" style="text;html=1;align=left;verticalAlign=middle;resizable=0;points=[];autosize=1;strokeColor=none;fillColor=none;strokeWidth=1;fontSize=17;" parent="NgM1DkIRtxGgJuV6kC7f-164" vertex="1">
          <mxGeometry x="20.00555555555553" y="10" width="60" height="30" as="geometry" />
        </mxCell>
        <mxCell id="mkWLtosg0KvpGkdHC7VF-79" value="" style="rounded=0;whiteSpace=wrap;html=1;fillColor=#ffe6cc;strokeColor=#d79b00;" parent="NgM1DkIRtxGgJuV6kC7f-164" vertex="1">
          <mxGeometry x="20" y="60" width="280" height="110" as="geometry" />
        </mxCell>
        <mxCell id="mkWLtosg0KvpGkdHC7VF-80" value="&lt;b&gt;/task&lt;br&gt;&lt;/b&gt;получение списка задач" style="text;html=1;align=left;verticalAlign=middle;resizable=0;points=[];autosize=1;strokeColor=none;fillColor=none;" parent="NgM1DkIRtxGgJuV6kC7f-164" vertex="1">
          <mxGeometry x="119.99777777777774" y="65" width="160" height="40" as="geometry" />
        </mxCell>
        <mxCell id="mkWLtosg0KvpGkdHC7VF-81" value="&lt;b&gt;/task/{taskId}&lt;/b&gt;&lt;br&gt;получение детальной&lt;br&gt;информации о задаче" style="text;html=1;align=left;verticalAlign=middle;resizable=0;points=[];autosize=1;strokeColor=none;fillColor=none;" parent="NgM1DkIRtxGgJuV6kC7f-164" vertex="1">
          <mxGeometry x="119.99777777777774" y="105" width="150" height="60" as="geometry" />
        </mxCell>
        <mxCell id="mkWLtosg0KvpGkdHC7VF-82" value="" style="shape=waypoint;sketch=0;fillStyle=solid;size=6;pointerEvents=1;points=[];fillColor=none;resizable=0;rotatable=0;perimeter=centerPerimeter;snapToPoint=1;" parent="NgM1DkIRtxGgJuV6kC7f-164" vertex="1">
          <mxGeometry x="93.33333333333331" y="110" width="20" height="20" as="geometry" />
        </mxCell>
        <mxCell id="mkWLtosg0KvpGkdHC7VF-83" value="" style="shape=waypoint;sketch=0;fillStyle=solid;size=6;pointerEvents=1;points=[];fillColor=none;resizable=0;rotatable=0;perimeter=centerPerimeter;snapToPoint=1;" parent="NgM1DkIRtxGgJuV6kC7f-164" vertex="1">
          <mxGeometry x="93.33333333333331" y="70" width="20" height="20" as="geometry" />
        </mxCell>
        <mxCell id="mkWLtosg0KvpGkdHC7VF-84" value="&lt;b&gt;GET&lt;/b&gt;" style="text;html=1;align=center;verticalAlign=middle;resizable=0;points=[];autosize=1;strokeColor=none;fillColor=none;" parent="NgM1DkIRtxGgJuV6kC7f-164" vertex="1">
          <mxGeometry x="20.00444444444446" y="65" width="50" height="30" as="geometry" />
        </mxCell>
        <mxCell id="NgM1DkIRtxGgJuV6kC7f-95" value="" style="group" parent="NgM1DkIRtxGgJuV6kC7f-164" vertex="1" connectable="0">
          <mxGeometry x="20" y="220" width="280" height="50" as="geometry" />
        </mxCell>
        <mxCell id="NgM1DkIRtxGgJuV6kC7f-97" value="" style="group" parent="NgM1DkIRtxGgJuV6kC7f-95" vertex="1" connectable="0">
          <mxGeometry width="280" height="50" as="geometry" />
        </mxCell>
        <mxCell id="mkWLtosg0KvpGkdHC7VF-91" value="" style="rounded=0;whiteSpace=wrap;html=1;fillColor=#ffe6cc;strokeColor=#d79b00;" parent="NgM1DkIRtxGgJuV6kC7f-97" vertex="1">
          <mxGeometry width="280" height="50" as="geometry" />
        </mxCell>
        <mxCell id="NgM1DkIRtxGgJuV6kC7f-82" value="&lt;b&gt;/task/{taskId}&lt;/b&gt;&lt;br&gt;изменение задачи" style="text;html=1;align=left;verticalAlign=middle;resizable=0;points=[];autosize=1;strokeColor=none;fillColor=none;" parent="NgM1DkIRtxGgJuV6kC7f-97" vertex="1">
          <mxGeometry x="96.77333333333337" y="5" width="130" height="40" as="geometry" />
        </mxCell>
        <mxCell id="NgM1DkIRtxGgJuV6kC7f-83" value="" style="shape=waypoint;sketch=0;fillStyle=solid;size=6;pointerEvents=1;points=[];fillColor=none;resizable=0;rotatable=0;perimeter=centerPerimeter;snapToPoint=1;" parent="NgM1DkIRtxGgJuV6kC7f-97" vertex="1">
          <mxGeometry x="73.33333333333331" y="10" width="20" height="20" as="geometry" />
        </mxCell>
        <mxCell id="NgM1DkIRtxGgJuV6kC7f-84" value="&lt;b&gt;PATCH&lt;/b&gt;" style="text;html=1;align=center;verticalAlign=middle;resizable=0;points=[];autosize=1;strokeColor=none;fillColor=none;" parent="NgM1DkIRtxGgJuV6kC7f-97" vertex="1">
          <mxGeometry y="5" width="60" height="30" as="geometry" />
        </mxCell>
        <mxCell id="NgM1DkIRtxGgJuV6kC7f-96" value="" style="group" parent="NgM1DkIRtxGgJuV6kC7f-164" vertex="1" connectable="0">
          <mxGeometry x="20.00555555555553" y="270" width="280.00444444444446" height="50" as="geometry" />
        </mxCell>
        <mxCell id="mkWLtosg0KvpGkdHC7VF-103" value="" style="rounded=0;whiteSpace=wrap;html=1;fillColor=#ffe6cc;strokeColor=#d79b00;" parent="NgM1DkIRtxGgJuV6kC7f-96" vertex="1">
          <mxGeometry x="0.004444444444484219" width="280" height="50" as="geometry" />
        </mxCell>
        <mxCell id="mkWLtosg0KvpGkdHC7VF-104" value="&lt;b&gt;/task/{taskId}&lt;/b&gt;&lt;br&gt;удаление задачи" style="text;html=1;align=left;verticalAlign=middle;resizable=0;points=[];autosize=1;strokeColor=none;fillColor=none;" parent="NgM1DkIRtxGgJuV6kC7f-96" vertex="1">
          <mxGeometry x="96.77777777777776" y="5" width="120" height="40" as="geometry" />
        </mxCell>
        <mxCell id="mkWLtosg0KvpGkdHC7VF-105" value="" style="shape=waypoint;sketch=0;fillStyle=solid;size=6;pointerEvents=1;points=[];fillColor=none;resizable=0;rotatable=0;perimeter=centerPerimeter;snapToPoint=1;" parent="NgM1DkIRtxGgJuV6kC7f-96" vertex="1">
          <mxGeometry x="73.33777777777777" y="10" width="20" height="20" as="geometry" />
        </mxCell>
        <mxCell id="mkWLtosg0KvpGkdHC7VF-106" value="&lt;b&gt;DELETE&lt;/b&gt;" style="text;html=1;align=center;verticalAlign=middle;resizable=0;points=[];autosize=1;strokeColor=none;fillColor=none;" parent="NgM1DkIRtxGgJuV6kC7f-96" vertex="1">
          <mxGeometry y="5" width="70" height="30" as="geometry" />
        </mxCell>
        <mxCell id="mkWLtosg0KvpGkdHC7VF-85" value="" style="rounded=0;whiteSpace=wrap;html=1;fillColor=#ffe6cc;strokeColor=#d79b00;" parent="NgM1DkIRtxGgJuV6kC7f-164" vertex="1">
          <mxGeometry x="20" y="170" width="280" height="50" as="geometry" />
        </mxCell>
        <mxCell id="mkWLtosg0KvpGkdHC7VF-86" value="&lt;b&gt;/task&lt;br&gt;&lt;/b&gt;создание задачи" style="text;html=1;align=left;verticalAlign=middle;resizable=0;points=[];autosize=1;strokeColor=none;fillColor=none;" parent="NgM1DkIRtxGgJuV6kC7f-164" vertex="1">
          <mxGeometry x="119.99777777777774" y="175" width="120" height="40" as="geometry" />
        </mxCell>
        <mxCell id="mkWLtosg0KvpGkdHC7VF-89" value="" style="shape=waypoint;sketch=0;fillStyle=solid;size=6;pointerEvents=1;points=[];fillColor=none;resizable=0;rotatable=0;perimeter=centerPerimeter;snapToPoint=1;" parent="NgM1DkIRtxGgJuV6kC7f-164" vertex="1">
          <mxGeometry x="93.33333333333331" y="180" width="20" height="20" as="geometry" />
        </mxCell>
        <mxCell id="mkWLtosg0KvpGkdHC7VF-90" value="&lt;b&gt;POST&lt;/b&gt;" style="text;html=1;align=center;verticalAlign=middle;resizable=0;points=[];autosize=1;strokeColor=none;fillColor=none;" parent="NgM1DkIRtxGgJuV6kC7f-164" vertex="1">
          <mxGeometry x="20" y="175" width="60" height="30" as="geometry" />
        </mxCell>
        <mxCell id="NgM1DkIRtxGgJuV6kC7f-168" value="" style="group" parent="1" vertex="1" connectable="0">
          <mxGeometry x="760" y="440" width="360" height="400" as="geometry" />
        </mxCell>
        <mxCell id="NgM1DkIRtxGgJuV6kC7f-100" value="" style="strokeWidth=2;dashed=0;align=center;fontSize=12;shape=rect;verticalLabelPosition=bottom;verticalAlign=top;fillColor=#c0f5a9" parent="NgM1DkIRtxGgJuV6kC7f-168" vertex="1">
          <mxGeometry width="360" height="400" as="geometry" />
        </mxCell>
        <mxCell id="NgM1DkIRtxGgJuV6kC7f-101" value="&lt;b&gt;Comment&lt;/b&gt;" style="text;html=1;align=left;verticalAlign=middle;resizable=0;points=[];autosize=1;strokeColor=none;fillColor=none;strokeWidth=1;fontSize=17;" parent="NgM1DkIRtxGgJuV6kC7f-168" vertex="1">
          <mxGeometry x="20.005555555555475" y="10" width="100" height="30" as="geometry" />
        </mxCell>
        <mxCell id="NgM1DkIRtxGgJuV6kC7f-165" value="" style="group" parent="NgM1DkIRtxGgJuV6kC7f-168" vertex="1" connectable="0">
          <mxGeometry x="20" y="60" width="320" height="70" as="geometry" />
        </mxCell>
        <mxCell id="NgM1DkIRtxGgJuV6kC7f-102" value="" style="rounded=0;whiteSpace=wrap;html=1;fillColor=#ffe6cc;strokeColor=#d79b00;" parent="NgM1DkIRtxGgJuV6kC7f-165" vertex="1">
          <mxGeometry width="320" height="70" as="geometry" />
        </mxCell>
        <mxCell id="NgM1DkIRtxGgJuV6kC7f-103" value="&lt;b style=&quot;border-color: var(--border-color);&quot;&gt;/comment/{taskId}&lt;br style=&quot;border-color: var(--border-color);&quot;&gt;&lt;/b&gt;получение списка комментариев" style="text;html=1;align=left;verticalAlign=middle;resizable=0;points=[];autosize=1;strokeColor=none;fillColor=none;" parent="NgM1DkIRtxGgJuV6kC7f-165" vertex="1">
          <mxGeometry x="109.99777777777774" y="15" width="210" height="40" as="geometry" />
        </mxCell>
        <mxCell id="NgM1DkIRtxGgJuV6kC7f-106" value="" style="shape=waypoint;sketch=0;fillStyle=solid;size=6;pointerEvents=1;points=[];fillColor=none;resizable=0;rotatable=0;perimeter=centerPerimeter;snapToPoint=1;" parent="NgM1DkIRtxGgJuV6kC7f-165" vertex="1">
          <mxGeometry x="77.00333333333326" y="15" width="20" height="20" as="geometry" />
        </mxCell>
        <mxCell id="NgM1DkIRtxGgJuV6kC7f-107" value="&lt;b&gt;GET&lt;/b&gt;" style="text;html=1;align=center;verticalAlign=middle;resizable=0;points=[];autosize=1;strokeColor=none;fillColor=none;" parent="NgM1DkIRtxGgJuV6kC7f-165" vertex="1">
          <mxGeometry x="0.0044444444445161935" y="5" width="50" height="30" as="geometry" />
        </mxCell>
        <mxCell id="NgM1DkIRtxGgJuV6kC7f-166" value="" style="group" parent="NgM1DkIRtxGgJuV6kC7f-168" vertex="1" connectable="0">
          <mxGeometry x="20" y="130" width="320" height="50" as="geometry" />
        </mxCell>
        <mxCell id="NgM1DkIRtxGgJuV6kC7f-119" value="" style="rounded=0;whiteSpace=wrap;html=1;fillColor=#ffe6cc;strokeColor=#d79b00;" parent="NgM1DkIRtxGgJuV6kC7f-166" vertex="1">
          <mxGeometry width="320" height="50" as="geometry" />
        </mxCell>
        <mxCell id="NgM1DkIRtxGgJuV6kC7f-120" value="&lt;b style=&quot;border-color: var(--border-color);&quot;&gt;/comment&lt;br style=&quot;border-color: var(--border-color);&quot;&gt;&lt;/b&gt;создание комментария" style="text;html=1;align=left;verticalAlign=middle;resizable=0;points=[];autosize=1;strokeColor=none;fillColor=none;" parent="NgM1DkIRtxGgJuV6kC7f-166" vertex="1">
          <mxGeometry x="107.14047619047619" y="5" width="150" height="40" as="geometry" />
        </mxCell>
        <mxCell id="NgM1DkIRtxGgJuV6kC7f-121" value="" style="shape=waypoint;sketch=0;fillStyle=solid;size=6;pointerEvents=1;points=[];fillColor=none;resizable=0;rotatable=0;perimeter=centerPerimeter;snapToPoint=1;" parent="NgM1DkIRtxGgJuV6kC7f-166" vertex="1">
          <mxGeometry x="78.57142857142844" y="10" width="20" height="20" as="geometry" />
        </mxCell>
        <mxCell id="NgM1DkIRtxGgJuV6kC7f-122" value="&lt;b&gt;POST&lt;/b&gt;" style="text;html=1;align=center;verticalAlign=middle;resizable=0;points=[];autosize=1;strokeColor=none;fillColor=none;" parent="NgM1DkIRtxGgJuV6kC7f-166" vertex="1">
          <mxGeometry y="5" width="60" height="30" as="geometry" />
        </mxCell>
        <mxCell id="NgM1DkIRtxGgJuV6kC7f-115" value="" style="rounded=0;whiteSpace=wrap;html=1;fillColor=#ffe6cc;strokeColor=#d79b00;" parent="NgM1DkIRtxGgJuV6kC7f-168" vertex="1">
          <mxGeometry x="20" y="180" width="320" height="110" as="geometry" />
        </mxCell>
        <mxCell id="NgM1DkIRtxGgJuV6kC7f-118" value="&lt;b&gt;DELETE&lt;/b&gt;" style="text;html=1;align=center;verticalAlign=middle;resizable=0;points=[];autosize=1;strokeColor=none;fillColor=none;" parent="NgM1DkIRtxGgJuV6kC7f-168" vertex="1">
          <mxGeometry x="20" y="185" width="70" height="30" as="geometry" />
        </mxCell>
        <mxCell id="qf7opmMXtcf24BurbE0s-1" value="" style="group" vertex="1" connectable="0" parent="NgM1DkIRtxGgJuV6kC7f-168">
          <mxGeometry x="97.79807678377398" y="185" width="219.99620065193773" height="40" as="geometry" />
        </mxCell>
        <mxCell id="NgM1DkIRtxGgJuV6kC7f-116" value="&lt;b style=&quot;border-color: var(--border-color);&quot;&gt;/comment/{taskId}/{commentId}&lt;br style=&quot;border-color: var(--border-color);&quot;&gt;&lt;/b&gt;удаление комментария" style="text;html=1;align=left;verticalAlign=middle;resizable=0;points=[];autosize=1;strokeColor=none;fillColor=none;" parent="qf7opmMXtcf24BurbE0s-1" vertex="1">
          <mxGeometry x="19.996200651937727" width="200" height="40" as="geometry" />
        </mxCell>
        <mxCell id="NgM1DkIRtxGgJuV6kC7f-117" value="" style="shape=waypoint;sketch=0;fillStyle=solid;size=6;pointerEvents=1;points=[];fillColor=none;resizable=0;rotatable=0;perimeter=centerPerimeter;snapToPoint=1;" parent="qf7opmMXtcf24BurbE0s-1" vertex="1">
          <mxGeometry width="20" height="20" as="geometry" />
        </mxCell>
        <mxCell id="qf7opmMXtcf24BurbE0s-5" value="" style="group" vertex="1" connectable="0" parent="NgM1DkIRtxGgJuV6kC7f-168">
          <mxGeometry x="97.79807678377392" y="225" width="212.2062006519377" height="60" as="geometry" />
        </mxCell>
        <mxCell id="qf7opmMXtcf24BurbE0s-3" value="&lt;b style=&quot;border-color: var(--border-color);&quot;&gt;/comment/{taskId}&lt;br style=&quot;border-color: var(--border-color);&quot;&gt;&lt;/b&gt;удаление всех комментариев,&lt;br&gt;принадлежащих задаче" style="text;html=1;align=left;verticalAlign=middle;resizable=0;points=[];autosize=1;strokeColor=none;fillColor=none;" vertex="1" parent="qf7opmMXtcf24BurbE0s-5">
          <mxGeometry x="22.20620065193772" width="190" height="60" as="geometry" />
        </mxCell>
        <mxCell id="qf7opmMXtcf24BurbE0s-4" value="" style="shape=waypoint;sketch=0;fillStyle=solid;size=6;pointerEvents=1;points=[];fillColor=none;resizable=0;rotatable=0;perimeter=centerPerimeter;snapToPoint=1;" vertex="1" parent="qf7opmMXtcf24BurbE0s-5">
          <mxGeometry y="5" width="20" height="20" as="geometry" />
        </mxCell>
        <mxCell id="NgM1DkIRtxGgJuV6kC7f-160" value="" style="group" parent="1" vertex="1" connectable="0">
          <mxGeometry x="1160" y="440" width="320" height="400" as="geometry" />
        </mxCell>
        <mxCell id="NgM1DkIRtxGgJuV6kC7f-169" value="" style="group" parent="NgM1DkIRtxGgJuV6kC7f-160" vertex="1" connectable="0">
          <mxGeometry width="320" height="400" as="geometry" />
        </mxCell>
        <mxCell id="NgM1DkIRtxGgJuV6kC7f-133" value="" style="strokeWidth=2;dashed=0;align=center;fontSize=12;shape=rect;verticalLabelPosition=bottom;verticalAlign=top;fillColor=#c0f5a9" parent="NgM1DkIRtxGgJuV6kC7f-169" vertex="1">
          <mxGeometry width="320" height="400" as="geometry" />
        </mxCell>
        <mxCell id="NgM1DkIRtxGgJuV6kC7f-134" value="&lt;b&gt;Review&lt;/b&gt;" style="text;html=1;align=left;verticalAlign=middle;resizable=0;points=[];autosize=1;strokeColor=none;fillColor=none;strokeWidth=1;fontSize=17;" parent="NgM1DkIRtxGgJuV6kC7f-169" vertex="1">
          <mxGeometry x="20.00555555555553" y="11.764705882352942" width="80" height="30" as="geometry" />
        </mxCell>
        <mxCell id="NgM1DkIRtxGgJuV6kC7f-159" value="" style="group" parent="NgM1DkIRtxGgJuV6kC7f-169" vertex="1" connectable="0">
          <mxGeometry x="20" y="70.58823529411765" width="280" height="70.58823529411765" as="geometry" />
        </mxCell>
        <mxCell id="NgM1DkIRtxGgJuV6kC7f-152" value="" style="rounded=0;whiteSpace=wrap;html=1;fillColor=#ffe6cc;strokeColor=#d79b00;" parent="NgM1DkIRtxGgJuV6kC7f-159" vertex="1">
          <mxGeometry width="280" height="70.58823529411765" as="geometry" />
        </mxCell>
        <mxCell id="NgM1DkIRtxGgJuV6kC7f-153" value="&lt;b style=&quot;border-color: var(--border-color);&quot;&gt;/review/{userId}&lt;/b&gt;&lt;br style=&quot;border-color: var(--border-color);&quot;&gt;добавление отзыва" style="text;html=1;align=left;verticalAlign=middle;resizable=0;points=[];autosize=1;strokeColor=none;fillColor=none;" parent="NgM1DkIRtxGgJuV6kC7f-159" vertex="1">
          <mxGeometry x="109.99777777777774" y="11.764705882352942" width="130" height="40" as="geometry" />
        </mxCell>
        <mxCell id="NgM1DkIRtxGgJuV6kC7f-154" value="" style="shape=waypoint;sketch=0;fillStyle=solid;size=6;pointerEvents=1;points=[];fillColor=none;resizable=0;rotatable=0;perimeter=centerPerimeter;snapToPoint=1;" parent="NgM1DkIRtxGgJuV6kC7f-159" vertex="1">
          <mxGeometry x="79.99333333333331" y="17.647058823529413" width="20" height="20" as="geometry" />
        </mxCell>
        <mxCell id="NgM1DkIRtxGgJuV6kC7f-156" value="&lt;b&gt;POST&lt;/b&gt;" style="text;html=1;align=center;verticalAlign=middle;resizable=0;points=[];autosize=1;strokeColor=none;fillColor=none;" parent="NgM1DkIRtxGgJuV6kC7f-159" vertex="1">
          <mxGeometry x="0.009999999999990905" y="11.764705882352942" width="60" height="30" as="geometry" />
        </mxCell>
        <mxCell id="NgM1DkIRtxGgJuV6kC7f-185" value="" style="endArrow=classic;html=1;rounded=0;entryX=0.16;entryY=-0.005;entryDx=0;entryDy=0;entryPerimeter=0;" parent="1" target="10b056a9c633e61c-15" edge="1">
          <mxGeometry width="50" height="50" relative="1" as="geometry">
            <mxPoint x="160" y="840" as="sourcePoint" />
            <mxPoint x="160" y="890" as="targetPoint" />
          </mxGeometry>
        </mxCell>
        <mxCell id="NgM1DkIRtxGgJuV6kC7f-186" value="" style="endArrow=classic;html=1;rounded=0;entryX=0.25;entryY=0;entryDx=0;entryDy=0;entryPerimeter=0;" parent="1" edge="1">
          <mxGeometry width="50" height="50" relative="1" as="geometry">
            <mxPoint x="240" y="960" as="sourcePoint" />
            <mxPoint x="240" y="840" as="targetPoint" />
          </mxGeometry>
        </mxCell>
        <mxCell id="NgM1DkIRtxGgJuV6kC7f-187" value="" style="endArrow=classic;html=1;rounded=0;entryX=0.25;entryY=0;entryDx=0;entryDy=0;entryPerimeter=0;" parent="1" edge="1">
          <mxGeometry width="50" height="50" relative="1" as="geometry">
            <mxPoint x="520" y="840" as="sourcePoint" />
            <mxPoint x="520" y="960" as="targetPoint" />
          </mxGeometry>
        </mxCell>
        <mxCell id="NgM1DkIRtxGgJuV6kC7f-188" value="" style="endArrow=classic;html=1;rounded=0;entryX=0.25;entryY=0;entryDx=0;entryDy=0;entryPerimeter=0;" parent="1" edge="1">
          <mxGeometry width="50" height="50" relative="1" as="geometry">
            <mxPoint x="600" y="960" as="sourcePoint" />
            <mxPoint x="600" y="840" as="targetPoint" />
          </mxGeometry>
        </mxCell>
        <mxCell id="NgM1DkIRtxGgJuV6kC7f-189" value="" style="endArrow=classic;html=1;rounded=0;entryX=0.25;entryY=0;entryDx=0;entryDy=0;entryPerimeter=0;" parent="1" edge="1">
          <mxGeometry width="50" height="50" relative="1" as="geometry">
            <mxPoint x="1280" y="840" as="sourcePoint" />
            <mxPoint x="1280" y="960" as="targetPoint" />
          </mxGeometry>
        </mxCell>
        <mxCell id="NgM1DkIRtxGgJuV6kC7f-190" value="" style="endArrow=classic;html=1;rounded=0;entryX=0.25;entryY=0;entryDx=0;entryDy=0;entryPerimeter=0;" parent="1" edge="1">
          <mxGeometry width="50" height="50" relative="1" as="geometry">
            <mxPoint x="920" y="840" as="sourcePoint" />
            <mxPoint x="920" y="960" as="targetPoint" />
          </mxGeometry>
        </mxCell>
        <mxCell id="NgM1DkIRtxGgJuV6kC7f-191" value="" style="endArrow=classic;html=1;rounded=0;entryX=0.25;entryY=0;entryDx=0;entryDy=0;entryPerimeter=0;" parent="1" edge="1">
          <mxGeometry width="50" height="50" relative="1" as="geometry">
            <mxPoint x="1360" y="960" as="sourcePoint" />
            <mxPoint x="1360" y="840" as="targetPoint" />
          </mxGeometry>
        </mxCell>
        <mxCell id="NgM1DkIRtxGgJuV6kC7f-192" value="" style="endArrow=classic;html=1;rounded=0;entryX=0.25;entryY=0;entryDx=0;entryDy=0;entryPerimeter=0;" parent="1" edge="1">
          <mxGeometry width="50" height="50" relative="1" as="geometry">
            <mxPoint x="1000" y="960" as="sourcePoint" />
            <mxPoint x="1000" y="840" as="targetPoint" />
          </mxGeometry>
        </mxCell>
        <mxCell id="NgM1DkIRtxGgJuV6kC7f-198" value="" style="endArrow=classic;html=1;rounded=0;entryX=0.25;entryY=0;entryDx=0;entryDy=0;" parent="1" target="10b056a9c633e61c-4" edge="1">
          <mxGeometry width="50" height="50" relative="1" as="geometry">
            <mxPoint x="759" y="200" as="sourcePoint" />
            <mxPoint x="750" y="270" as="targetPoint" />
          </mxGeometry>
        </mxCell>
        <mxCell id="NgM1DkIRtxGgJuV6kC7f-199" value="" style="endArrow=classic;html=1;rounded=0;entryX=0.75;entryY=1;entryDx=0;entryDy=0;" parent="1" target="qQsVey0D8Tyg-_Dp7Qvx-10" edge="1">
          <mxGeometry width="50" height="50" relative="1" as="geometry">
            <mxPoint x="840" y="280" as="sourcePoint" />
            <mxPoint x="841" y="200" as="targetPoint" />
          </mxGeometry>
        </mxCell>
        <mxCell id="hbAHIciJkzQJu2692QOL-2" value="" style="endArrow=classic;html=1;rounded=0;entryX=1;entryY=0.5;entryDx=0;entryDy=0;exitX=0.5;exitY=0;exitDx=0;exitDy=0;" parent="1" source="mkWLtosg0KvpGkdHC7VF-131" target="qQsVey0D8Tyg-_Dp7Qvx-10" edge="1">
          <mxGeometry width="50" height="50" relative="1" as="geometry">
            <mxPoint x="1280" y="160" as="sourcePoint" />
            <mxPoint x="880" y="150" as="targetPoint" />
            <Array as="points">
              <mxPoint x="1620" y="160" />
            </Array>
          </mxGeometry>
        </mxCell>
        <mxCell id="hbAHIciJkzQJu2692QOL-3" value="WebSocket connection" style="text;html=1;align=center;verticalAlign=middle;resizable=0;points=[];autosize=1;strokeColor=none;fillColor=none;fontSize=17;fontStyle=1" parent="1" vertex="1">
          <mxGeometry x="1120" y="120" width="210" height="30" as="geometry" />
        </mxCell>
        <mxCell id="9JLBD4dGbarb6GJhEA6_-1" value="" style="endArrow=classic;startArrow=classic;html=1;rounded=0;entryX=0;entryY=0.5;entryDx=0;entryDy=0;exitX=0.439;exitY=-0.006;exitDx=0;exitDy=0;exitPerimeter=0;" parent="1" source="qQsVey0D8Tyg-_Dp7Qvx-13" target="10b056a9c633e61c-4" edge="1">
          <mxGeometry width="50" height="50" relative="1" as="geometry">
            <mxPoint x="175" y="345" as="sourcePoint" />
            <mxPoint x="225" y="295" as="targetPoint" />
            <Array as="points">
              <mxPoint x="180" y="320" />
            </Array>
          </mxGeometry>
        </mxCell>
        <mxCell id="9JLBD4dGbarb6GJhEA6_-2" value="" style="endArrow=classic;startArrow=classic;html=1;rounded=0;exitX=0.5;exitY=0;exitDx=0;exitDy=0;entryX=0.25;entryY=1;entryDx=0;entryDy=0;" parent="1" source="mkWLtosg0KvpGkdHC7VF-69" target="10b056a9c633e61c-4" edge="1">
          <mxGeometry width="50" height="50" relative="1" as="geometry">
            <mxPoint x="750" y="410" as="sourcePoint" />
            <mxPoint x="800" y="360" as="targetPoint" />
            <Array as="points">
              <mxPoint x="560" y="400" />
              <mxPoint x="759" y="400" />
            </Array>
          </mxGeometry>
        </mxCell>
        <mxCell id="9JLBD4dGbarb6GJhEA6_-3" value="" style="endArrow=classic;startArrow=classic;html=1;rounded=0;entryX=0.75;entryY=1;entryDx=0;entryDy=0;exitX=0.556;exitY=0;exitDx=0;exitDy=0;exitPerimeter=0;" parent="1" source="NgM1DkIRtxGgJuV6kC7f-100" target="10b056a9c633e61c-4" edge="1">
          <mxGeometry width="50" height="50" relative="1" as="geometry">
            <mxPoint x="950" y="430" as="sourcePoint" />
            <mxPoint x="800" y="440" as="targetPoint" />
            <Array as="points">
              <mxPoint x="960" y="400" />
              <mxPoint x="839" y="400" />
            </Array>
          </mxGeometry>
        </mxCell>
        <mxCell id="9JLBD4dGbarb6GJhEA6_-5" value="" style="endArrow=classic;startArrow=classic;html=1;rounded=0;entryX=1;entryY=0.5;entryDx=0;entryDy=0;exitX=0.5;exitY=0;exitDx=0;exitDy=0;" parent="1" source="NgM1DkIRtxGgJuV6kC7f-133" target="10b056a9c633e61c-4" edge="1">
          <mxGeometry width="50" height="50" relative="1" as="geometry">
            <mxPoint x="1091" y="360" as="sourcePoint" />
            <mxPoint x="970" y="280" as="targetPoint" />
            <Array as="points">
              <mxPoint x="1320" y="320" />
              <mxPoint x="970" y="320" />
            </Array>
          </mxGeometry>
        </mxCell>
        <mxCell id="9JLBD4dGbarb6GJhEA6_-8" value="" style="endArrow=classic;startArrow=classic;html=1;rounded=0;entryX=0.75;entryY=1;entryDx=0;entryDy=0;" parent="1" edge="1">
          <mxGeometry width="50" height="50" relative="1" as="geometry">
            <mxPoint x="780" y="840" as="sourcePoint" />
            <mxPoint x="700" y="840" as="targetPoint" />
            <Array as="points">
              <mxPoint x="780" y="880" />
              <mxPoint x="700" y="880" />
            </Array>
          </mxGeometry>
        </mxCell>
        <mxCell id="9JLBD4dGbarb6GJhEA6_-9" value="" style="endArrow=classic;startArrow=classic;html=1;rounded=0;entryX=0.75;entryY=1;entryDx=0;entryDy=0;exitX=0.062;exitY=0.999;exitDx=0;exitDy=0;exitPerimeter=0;" parent="1" source="NgM1DkIRtxGgJuV6kC7f-133" edge="1">
          <mxGeometry width="50" height="50" relative="1" as="geometry">
            <mxPoint x="1180" y="880" as="sourcePoint" />
            <mxPoint x="680" y="840" as="targetPoint" />
            <Array as="points">
              <mxPoint x="1180" y="900" />
              <mxPoint x="970" y="900" />
              <mxPoint x="680" y="900" />
            </Array>
          </mxGeometry>
        </mxCell>
      </root>
    </mxGraphModel>
  </diagram>
</mxfile>
